<svg width="48" height="48" viewBox="0 0 48 48" fill="none" xmlns="http://www.w3.org/2000/svg">
<path d="M0 0H48V48H0V0Z" fill="#D9D9D9"/>
<path d="M10.7039 41.156C10.3919 41.156 10.1493 41.0347 9.97594 40.792C9.83728 40.5493 9.76794 40.2893 9.76794 40.012C9.83728 39.4227 9.99328 39.0933 10.2359 39.024C10.4786 38.9546 10.7733 38.92 11.1199 38.92C11.7093 38.92 12.1946 38.8506 12.5759 38.712C12.9573 38.5733 13.3213 38.2786 13.6679 37.828C14.0493 37.3773 14.4826 36.7013 14.9679 35.8L26.6159 14.22C27.2399 12.9026 27.5693 11.984 27.6039 11.464C27.6386 10.9093 27.3959 10.58 26.8759 10.476C26.3559 10.3373 25.5933 10.268 24.5879 10.268H18.9199C17.7413 10.3026 16.8226 10.5106 16.1639 10.892C15.5399 11.2386 15.0373 11.8453 14.6559 12.712C14.2746 13.5786 13.8413 14.7746 13.3559 16.3C13.2519 16.6466 13.0266 16.872 12.6799 16.976C12.3679 17.0453 12.0213 17.0626 11.6399 17.028C11.3626 16.9586 11.1026 16.8373 10.8599 16.664C10.6173 16.456 10.5133 16.1786 10.5479 15.832L11.5879 9.27998C11.6919 8.79465 11.8479 8.49998 12.0559 8.39598C12.2986 8.25731 12.6453 8.18798 13.0959 8.18798H30.9319C32.9773 8.18798 35.1093 8.13598 37.3279 8.03198C37.6746 8.03198 37.9173 8.15332 38.0559 8.39598C38.1946 8.63865 38.2639 8.89865 38.2639 9.17598C38.2293 9.76531 38.0906 10.0946 37.8479 10.164C37.6399 10.1986 37.3453 10.2333 36.9639 10.268C35.6813 10.3373 34.7106 10.788 34.0519 11.62C33.3933 12.452 32.8213 13.3186 32.3359 14.22L20.9479 35.8C20.7746 36.216 20.6359 36.6666 20.5319 37.152C20.4626 37.6373 20.6013 38.0533 20.9479 38.4C21.3293 38.712 22.1093 38.8853 23.2879 38.92H29.4239C30.6373 38.8853 31.5559 38.6946 32.1799 38.348C32.8386 37.9666 33.3586 37.3426 33.7399 36.476C34.1559 35.6093 34.5893 34.4133 35.0399 32.888C35.1439 32.5413 35.3519 32.316 35.6639 32.212C36.0106 32.108 36.3746 32.0906 36.7559 32.16C37.0333 32.1946 37.2933 32.316 37.5359 32.524C37.7786 32.732 37.8826 33.0093 37.8479 33.356L36.8079 39.908C36.7039 40.3933 36.5306 40.7053 36.2879 40.844C36.0799 40.948 35.7506 41 35.2999 41H16.9439C15.9039 41 14.8813 41 13.8759 41C12.8706 41.0347 11.8133 41.0866 10.7039 41.156Z" fill="#222222"/>
</svg>
